# xmcd CD database file generated by Grip 3.0.1
# 
# Track frame offsets:
#       150
#       20372
#       37543
#       55948
#       79636
#       89552
#       108970
#       123685
#       143487
#       158076
#       181501
#       200679
# 
# Disc length: 2905 seconds
# 
# Revision: 2
# Processed by: cddbd v1.4PL0 Copyright (c) Steve Scherf et al.
# Submitted via: Grip 3.0.1
# 
DISCID=8c0b570c
DTITLE=R.E.M. - Automatic For The People
DYEAR=1992
DGENRE=Rock
TTITLE0=Drive
TTITLE1=Try Not To Breath
TTITLE2=The Sidewinder Sleeps Tonite
TTITLE3=Everybody Hurts
TTITLE4=New Orleans Instrumental No. 1
TTITLE5=Sweetness Follows
TTITLE6=Monty Got A Raw Deal
TTITLE7=Ignoreland
TTITLE8=Star Me Kitten
TTITLE9=Man On The Moon
TTITLE10=Nightswimming
TTITLE11=Find The River
EXTD=
EXTT0=
EXTT1=
EXTT2=
EXTT3=
EXTT4=
EXTT5=
EXTT6=
EXTT7=
EXTT8=
EXTT9=
EXTT10=
EXTT11=
PLAYORDER=
